<svg width="35" height="43" viewBox="0 0 35 43" fill="none" xmlns="http://www.w3.org/2000/svg">
<path id="Vector" d="M34.6204 27.9571C34.6204 27.9571 33.5844 38.0358 26.4782 41.1205V41.9836C26.4782 42.0956 22.4419 42.189 17.4677 42.189C12.4937 42.189 8.45715 42.0956 8.45715 41.9836V41.1205C1.35064 38.0358 0.314941 27.9571 0.314941 27.9571C0.314941 27.7986 4.10837 27.6632 9.65125 27.5933C8.52214 25.7175 10.5379 25.3348 9.63725 24.2151C8.70412 22.6053 10.0011 22.0735 9.87062 21.4342C9.85662 21.0514 9.63269 20.9024 9.52073 20.6644C9.11942 19.9552 9.37134 19.0921 9.63725 18.7607C9.78177 18.5693 9.87973 18.3734 9.87973 18.0469C10.1177 17.2957 11.0417 17.7201 10.7618 18.5416C10.6078 19.2603 10.2111 19.2323 10.2485 19.9135C10.3045 20.3708 10.5844 20.4828 10.7012 20.8701C11.0931 22.2046 10.2579 22.5545 10.2485 23.0631C10.202 23.4785 10.4164 23.6884 10.5424 23.9029C11.3076 25.3399 10.2016 26.0025 10.2485 26.4224C10.1971 26.9497 10.5144 27.1222 10.6404 27.4444C10.6638 27.491 10.6824 27.5378 10.7009 27.5844C11.1022 27.5798 11.5081 27.5749 11.9188 27.5749C10.7009 25.4613 12.7495 25.004 11.8723 23.6881C10.9063 21.8918 12.2131 21.3456 12.0868 20.5478C12.0728 20.0811 11.8534 19.918 11.732 19.6332C11.3587 18.9194 11.5686 17.9628 11.8254 17.599C11.9699 17.3796 12.1008 17.1277 12.0959 16.7218C12.2918 16.022 13.2158 16.3345 12.9965 17.1326C12.8751 18.0332 12.4273 17.9583 12.4647 18.8124C12.5021 19.3117 12.7541 19.4516 12.88 19.8109C13.3748 21.2993 12.4833 21.7801 12.4693 22.3444C12.4038 22.9042 12.6607 23.1562 12.8052 23.4455C13.4818 25.0133 12.4318 25.6152 12.4693 26.1984C12.4273 26.8237 12.7306 27.0151 12.866 27.3789C12.8895 27.4395 12.9126 27.5003 12.936 27.5703C13.3468 27.5658 13.7666 27.5658 14.1865 27.5658C12.88 25.1862 14.9751 24.6775 14.1025 23.1471C13.1365 21.2339 14.4104 20.5436 14.3125 19.7081C14.317 19.1294 14.0791 18.9009 13.9437 18.5696C13.5749 17.753 13.8132 16.7358 14.0602 16.3579C14.2467 16.05 14.3027 15.8027 14.3307 15.3359C14.6012 14.6547 15.4458 15.042 15.2218 15.8446C15.0959 16.7872 14.662 16.7313 14.69 17.6969C14.7274 18.2942 14.9794 18.4435 15.1099 18.8588C15.5906 20.4872 14.6991 20.9725 14.6946 21.6677C14.634 22.4375 14.965 22.6618 15.1099 23.1096C15.6137 24.9108 14.6151 25.1299 14.69 26.1424C14.6666 26.4737 14.9794 27.043 15.1567 27.5608C15.5675 27.5608 15.9825 27.5608 16.4027 27.5562C15.1567 24.514 17.1584 24.6074 16.3512 22.6428C15.3432 20.5102 16.6357 19.8105 16.5377 18.8214C16.5423 18.1776 16.3092 17.9162 16.169 17.5474C15.8142 16.7217 16.0196 15.6017 16.2624 15.1864C16.4118 14.8971 16.5423 14.5797 16.5423 14.0433C16.7428 13.3481 17.6482 13.6466 17.4523 14.4632C17.3544 15.5317 16.8831 15.4803 16.9111 16.5862C16.9345 17.23 17.1815 17.426 17.3169 17.8462C17.8348 19.6145 16.9296 20.1932 16.9202 20.9444C16.8457 21.8076 17.1767 22.0924 17.3309 22.5728C17.8442 24.5326 16.8411 24.7704 16.9111 25.9184C16.8736 26.2963 17.219 26.9684 17.3918 27.5562H17.4758H18.6703C18.6423 27.3648 18.6049 27.2014 18.5163 27.1083C17.5783 24.7799 18.9502 24.2294 18.7448 22.797C18.7214 22.5077 18.6608 22.3303 18.5863 22.1392C17.4572 19.6148 19.1136 19.0365 18.6983 17.3567C18.0496 15.7514 18.0171 14.9722 18.6377 13.6098C18.7591 13.3764 18.7172 12.938 18.8011 12.6066C18.9456 12.2567 19.4918 12.2613 19.6409 12.6066C19.7623 12.9425 19.6269 13.5073 19.5614 13.7637C18.3763 16.4186 20.0187 16.2228 19.6269 18.6163C19.4729 19.3909 18.8896 20.0627 19.2115 21.2012C20.3781 23.945 19.0622 24.29 19.123 25.6388C19.0625 26.0867 19.4498 26.8847 19.6223 27.5565C28.0729 27.5787 34.6195 27.7466 34.6195 27.9569L34.6204 27.9571ZM8.48123 19.0591L5.15907 21.0514C5.00512 21.1448 4.9537 21.3407 5.04255 21.4992C5.10309 21.6066 5.21506 21.6626 5.32702 21.6626C5.38301 21.6626 5.43444 21.6486 5.48553 21.6206L8.37841 20.0153C8.36441 19.8288 8.37385 19.642 8.39696 19.4461C8.4204 19.3155 8.44839 19.185 8.48126 19.0591L8.48123 19.0591ZM20.4822 12.2234L20.4962 12.2514L20.5056 12.2794C20.613 12.5782 20.627 12.9092 20.5942 13.2359L34.2049 5.68156C34.6342 5.44363 34.7882 4.89781 34.5408 4.46847C34.3774 4.18399 34.0789 4.02517 33.7756 4.02517C33.6216 4.02517 33.4628 4.06715 33.3229 4.15112L20.3229 11.9571C20.3837 12.0365 20.4397 12.13 20.4817 12.2234L20.4822 12.2234ZM4.23511 20.0996C4.33764 20.2442 4.53845 20.2816 4.68785 20.1836L31.9044 1.80347C32.3151 1.52811 32.4177 0.968325 32.1329 0.56696C31.8484 0.161087 31.2931 0.0676735 30.8918 0.357028L4.30933 19.6462C4.16481 19.7491 4.13194 19.9541 4.2348 20.099L4.23511 20.0996Z" fill="black"/>
</svg>
