<svg width="46" height="43" viewBox="0 0 46 43" fill="none" xmlns="http://www.w3.org/2000/svg">
<g id="Group 16">
<path id="Vector" d="M45.3563 20.4339C45.3563 32.448 35.338 42.1889 23.0077 42.1889C10.6775 42.1889 0.65918 32.448 0.65918 20.4339C0.65918 19.7864 0.659179 19.1393 0.751727 18.5073C0.923742 20.1903 1.34966 21.8375 2.0154 23.393C2.14098 23.6961 2.20393 24.0209 2.20049 24.3488V25.3891C2.1943 26.178 2.43031 26.95 2.87687 27.6005C3.32343 28.2511 3.95885 28.7489 4.69752 29.0265L5.96912 29.4965C6.25261 29.6079 6.51373 29.77 6.73976 29.9743L6.81682 30.0438C7.34801 30.5341 7.69377 31.1929 7.79523 31.9085L7.91839 32.8257H7.91873C7.99752 33.4192 8.2982 33.9607 8.76024 34.3412C9.22228 34.7217 9.81166 34.913 10.4089 34.8762C11.0065 34.8393 11.5679 34.5775 11.9801 34.1434C12.2027 33.884 12.5698 33.8024 12.8815 33.9431C13.521 34.2204 14.1915 34.4826 14.862 34.7138C15.1837 34.8294 15.3908 35.1431 15.3709 35.4844V37.6577C15.4837 38.3912 15.9423 39.0259 16.6032 39.3641C17.2641 39.702 18.0471 39.702 18.708 39.3641C19.3692 39.0259 19.8275 38.3912 19.9406 37.6577V37.2569C19.9417 36.8953 20.0954 36.551 20.3645 36.3091C20.6311 36.0682 20.9851 35.9485 21.3432 35.9778C21.442 35.985 21.5397 36.0005 21.636 36.0239C22.1768 36.1632 22.6416 36.509 22.9306 36.9872L23.5781 37.958C23.9627 38.537 24.5878 38.912 25.2796 38.9795C25.9715 39.0466 26.6568 38.7989 27.146 38.3049L30.4137 34.9987L30.4134 34.999C30.4921 34.9299 30.5836 34.8772 30.6831 34.8449C30.8627 34.7898 31.0574 34.8242 31.2074 34.9374C31.3588 35.0455 31.4482 35.2209 31.4461 35.4074C31.4413 35.9867 31.6722 36.5431 32.0857 36.9487C32.4996 37.3471 33.0525 37.5683 33.627 37.5652C34.2841 37.5573 34.9116 37.292 35.3754 36.8269C35.8395 36.3614 36.1027 35.7328 36.1085 35.0761V33.6039C36.0986 32.8818 36.4371 32.1993 37.0178 31.7699C37.5765 31.3829 38.1579 31.0302 38.7596 30.7141C39.9421 30.1588 40.9811 29.3386 41.7958 28.3175C43.7819 25.4053 44.9795 22.0279 45.2716 18.515C45.3562 19.17 45.3562 19.7944 45.3562 20.434L45.3563 20.4339Z" fill="black"/>
<path id="Vector_2" d="M22.5835 10.2386C16.4879 10.2386 16.4569 12.9589 16.4569 13.8681C16.4428 14.2758 16.5003 14.6825 16.6266 15.0702C16.8209 15.6127 17.1825 16.0796 17.659 16.4037C21.0578 15.7005 24.5641 15.7005 27.9627 16.4037C28.6078 16.1037 29.2009 15.7032 29.7197 15.2167C30.1312 14.8472 30.4435 14.381 30.6293 13.8606C30.706 13.6373 30.7452 13.403 30.7449 13.167C30.7139 10.747 26.3058 10.2386 22.5837 10.2386H22.5835ZM22.5835 10.2386C16.4879 10.2386 16.4569 12.9589 16.4569 13.8681C16.4428 14.2758 16.5003 14.6825 16.6266 15.0702C16.8209 15.6127 17.1825 16.0796 17.659 16.4037C21.0578 15.7005 24.5641 15.7005 27.9627 16.4037C28.6078 16.1037 29.2009 15.7032 29.7197 15.2167C30.1312 14.8472 30.4435 14.381 30.6293 13.8606C30.706 13.6373 30.7452 13.403 30.7449 13.167C30.7139 10.747 26.3058 10.2386 22.5837 10.2386H22.5835ZM22.5835 10.2386C16.4879 10.2386 16.4569 12.9589 16.4569 13.8681C16.4428 14.2758 16.5003 14.6825 16.6266 15.0702C16.8209 15.6127 17.1825 16.0796 17.659 16.4037C21.0578 15.7005 24.5641 15.7005 27.9627 16.4037C28.6078 16.1037 29.2009 15.7032 29.7197 15.2167C30.1312 14.8472 30.4435 14.381 30.6293 13.8606C30.706 13.6373 30.7452 13.403 30.7449 13.167C30.7139 10.747 26.3058 10.2386 22.5837 10.2386H22.5835ZM22.5835 10.2386C16.4879 10.2386 16.4569 12.9589 16.4569 13.8681C16.4428 14.2758 16.5003 14.6825 16.6266 15.0702C16.8209 15.6127 17.1825 16.0796 17.659 16.4037C21.0578 15.7005 24.5641 15.7005 27.9627 16.4037C28.6078 16.1037 29.2009 15.7032 29.7197 15.2167C30.1312 14.8472 30.4435 14.381 30.6293 13.8606C30.706 13.6373 30.7452 13.403 30.7449 13.167C30.7139 10.747 26.3058 10.2386 22.5837 10.2386H22.5835ZM22.5835 10.2386C16.4879 10.2386 16.4569 12.9589 16.4569 13.8681C16.4428 14.2758 16.5003 14.6825 16.6266 15.0702C16.8209 15.6127 17.1825 16.0796 17.659 16.4037C21.0578 15.7005 24.5641 15.7005 27.9627 16.4037C28.6078 16.1037 29.2009 15.7032 29.7197 15.2167C30.1312 14.8472 30.4435 14.381 30.6293 13.8606C30.706 13.6373 30.7452 13.403 30.7449 13.167C30.7139 10.747 26.3058 10.2386 22.5837 10.2386H22.5835ZM22.5835 10.2386C16.4879 10.2386 16.4569 12.9589 16.4569 13.8681C16.4428 14.2758 16.5003 14.6825 16.6266 15.0702C16.8209 15.6127 17.1825 16.0796 17.659 16.4037C21.0578 15.7005 24.5641 15.7005 27.9627 16.4037C28.6078 16.1037 29.2009 15.7032 29.7197 15.2167C30.1312 14.8472 30.4435 14.381 30.6293 13.8606C30.706 13.6373 30.7452 13.403 30.7449 13.167C30.7139 10.747 26.3058 10.2386 22.5837 10.2386H22.5835ZM22.5835 10.2386C16.4879 10.2386 16.4569 12.9589 16.4569 13.8681C16.4428 14.2758 16.5003 14.6825 16.6266 15.0702C16.8209 15.6127 17.1825 16.0796 17.659 16.4037C21.0578 15.7005 24.5641 15.7005 27.9627 16.4037C28.6078 16.1037 29.2009 15.7032 29.7197 15.2167C30.1312 14.8472 30.4435 14.381 30.6293 13.8606C30.706 13.6373 30.7452 13.403 30.7449 13.167C30.7139 10.747 26.3058 10.2386 22.5837 10.2386H22.5835ZM22.5835 10.2386C16.4879 10.2386 16.4569 12.9589 16.4569 13.8681C16.4428 14.2758 16.5003 14.6825 16.6266 15.0702C16.8209 15.6127 17.1825 16.0796 17.659 16.4037C21.0578 15.7005 24.5641 15.7005 27.9627 16.4037C28.6078 16.1037 29.2009 15.7032 29.7197 15.2167C30.1312 14.8472 30.4435 14.381 30.6293 13.8606C30.706 13.6373 30.7452 13.403 30.7449 13.167C30.7139 10.747 26.3058 10.2386 22.5837 10.2386H22.5835ZM22.5835 10.2386C16.4879 10.2386 16.4569 12.9589 16.4569 13.8681C16.4428 14.2758 16.5003 14.6825 16.6266 15.0702C16.8209 15.6127 17.1825 16.0796 17.659 16.4037C21.0578 15.7005 24.5641 15.7005 27.9627 16.4037C28.6078 16.1037 29.2009 15.7032 29.7197 15.2167C30.1312 14.8472 30.4435 14.381 30.6293 13.8606C30.706 13.6373 30.7452 13.403 30.7449 13.167C30.7139 10.747 26.3058 10.2386 22.5837 10.2386H22.5835ZM22.5835 10.2386C16.4879 10.2386 16.4569 12.9589 16.4569 13.8681C16.4428 14.2758 16.5003 14.6825 16.6266 15.0702C16.8209 15.6127 17.1825 16.0796 17.659 16.4037C21.0578 15.7005 24.5641 15.7005 27.9627 16.4037C28.6078 16.1037 29.2009 15.7032 29.7197 15.2167C30.1312 14.8472 30.4435 14.381 30.6293 13.8606C30.706 13.6373 30.7452 13.403 30.7449 13.167C30.7139 10.747 26.3058 10.2386 22.5837 10.2386H22.5835ZM22.5835 10.2386C16.4879 10.2386 16.4569 12.9589 16.4569 13.8681C16.4428 14.2758 16.5003 14.6825 16.6266 15.0702C16.8209 15.6127 17.1825 16.0796 17.659 16.4037C21.0578 15.7005 24.5641 15.7005 27.9627 16.4037C28.6078 16.1037 29.2009 15.7032 29.7197 15.2167C30.1312 14.8472 30.4435 14.381 30.6293 13.8606C30.706 13.6373 30.7452 13.403 30.7449 13.167C30.7139 10.747 26.3058 10.2386 22.5837 10.2386H22.5835ZM22.5835 10.2386C16.4879 10.2386 16.4569 12.9589 16.4569 13.8681C16.4428 14.2758 16.5003 14.6825 16.6266 15.0702C16.8209 15.6127 17.1825 16.0796 17.659 16.4037C21.0578 15.7005 24.5641 15.7005 27.9627 16.4037C28.6078 16.1037 29.2009 15.7032 29.7197 15.2167C30.1312 14.8472 30.4435 14.381 30.6293 13.8606C30.706 13.6373 30.7452 13.403 30.7449 13.167C30.7139 10.747 26.3058 10.2386 22.5837 10.2386H22.5835ZM22.5835 10.2386C16.4879 10.2386 16.4569 12.9589 16.4569 13.8681C16.4428 14.2758 16.5003 14.6825 16.6266 15.0702C16.8209 15.6127 17.1825 16.0796 17.659 16.4037C21.0578 15.7005 24.5641 15.7005 27.9627 16.4037C28.6078 16.1037 29.2009 15.7032 29.7197 15.2167C30.1312 14.8472 30.4435 14.381 30.6293 13.8606C30.706 13.6373 30.7452 13.403 30.7449 13.167C30.7139 10.747 26.3058 10.2386 22.5837 10.2386H22.5835ZM22.5835 10.2386C16.4879 10.2386 16.4569 12.9589 16.4569 13.8681C16.4428 14.2758 16.5003 14.6825 16.6266 15.0702C16.8209 15.6127 17.1825 16.0796 17.659 16.4037C21.0578 15.7005 24.5641 15.7005 27.9627 16.4037C28.6078 16.1037 29.2009 15.7032 29.7197 15.2167C30.1312 14.8472 30.4435 14.381 30.6293 13.8606C30.706 13.6373 30.7452 13.403 30.7449 13.167C30.7139 10.747 26.3058 10.2386 22.5837 10.2386H22.5835ZM22.5835 10.2386C16.4879 10.2386 16.4569 12.9589 16.4569 13.8681C16.4428 14.2758 16.5003 14.6825 16.6266 15.0702C16.8209 15.6127 17.1825 16.0796 17.659 16.4037C21.0578 15.7005 24.5641 15.7005 27.9627 16.4037C28.6078 16.1037 29.2009 15.7032 29.7197 15.2167C30.1312 14.8472 30.4435 14.381 30.6293 13.8606C30.706 13.6373 30.7452 13.403 30.7449 13.167C30.7139 10.747 26.3058 10.2386 22.5837 10.2386H22.5835ZM22.5835 10.2386C16.4879 10.2386 16.4569 12.9589 16.4569 13.8681C16.4428 14.2758 16.5003 14.6825 16.6266 15.0702C16.8209 15.6127 17.1825 16.0796 17.659 16.4037C21.0578 15.7005 24.5641 15.7005 27.9627 16.4037C28.6078 16.1037 29.2009 15.7032 29.7197 15.2167C30.1312 14.8472 30.4435 14.381 30.6293 13.8606C30.706 13.6373 30.7452 13.403 30.7449 13.167C30.7139 10.747 26.3058 10.2386 22.5837 10.2386H22.5835ZM22.5835 10.2386C16.4879 10.2386 16.4569 12.9589 16.4569 13.8681C16.4428 14.2758 16.5003 14.6825 16.6266 15.0702C16.8209 15.6127 17.1825 16.0796 17.659 16.4037C21.0578 15.7005 24.5641 15.7005 27.9627 16.4037C28.6078 16.1037 29.2009 15.7032 29.7197 15.2167C30.1312 14.8472 30.4435 14.381 30.6293 13.8606C30.706 13.6373 30.7452 13.403 30.7449 13.167C30.7139 10.747 26.3058 10.2386 22.5837 10.2386H22.5835ZM22.5835 10.2386C16.4879 10.2386 16.4569 12.9589 16.4569 13.8681C16.4428 14.2758 16.5003 14.6825 16.6266 15.0702C16.8209 15.6127 17.1825 16.0796 17.659 16.4037C21.0578 15.7005 24.5641 15.7005 27.9627 16.4037C28.6078 16.1037 29.2009 15.7032 29.7197 15.2167C30.1312 14.8472 30.4435 14.381 30.6293 13.8606C30.706 13.6373 30.7452 13.403 30.7449 13.167C30.7139 10.747 26.3058 10.2386 22.5837 10.2386H22.5835ZM22.5835 10.2386C16.4879 10.2386 16.4569 12.9589 16.4569 13.8681C16.4428 14.2758 16.5003 14.6825 16.6266 15.0702C16.8209 15.6127 17.1825 16.0796 17.659 16.4037C21.0578 15.7005 24.5641 15.7005 27.9627 16.4037C28.6078 16.1037 29.2009 15.7032 29.7197 15.2167C30.1312 14.8472 30.4435 14.381 30.6293 13.8606C30.706 13.6373 30.7452 13.403 30.7449 13.167C30.7139 10.747 26.3058 10.2386 22.5837 10.2386H22.5835ZM22.5835 10.2386C16.4879 10.2386 16.4569 12.9589 16.4569 13.8681C16.4428 14.2758 16.5003 14.6825 16.6266 15.0702C16.8209 15.6127 17.1825 16.0796 17.659 16.4037C21.0578 15.7005 24.5641 15.7005 27.9627 16.4037C28.6078 16.1037 29.2009 15.7032 29.7197 15.2167C30.1312 14.8472 30.4435 14.381 30.6293 13.8606C30.706 13.6373 30.7452 13.403 30.7449 13.167C30.7139 10.747 26.3058 10.2386 22.5837 10.2386H22.5835ZM43.5141 13.8606C41.9037 5.89196 33.6191 0.188965 23.0071 0.188965C12.3952 0.188965 4.11103 5.8917 2.49224 13.8676C2.29648 14.8185 2.19844 15.7866 2.19947 16.7575C2.2005 18.8313 2.61988 20.8835 3.43249 22.7915C3.64649 23.2776 3.75933 23.802 3.7638 24.3328V25.3731C3.76346 25.8476 3.90898 26.3103 4.18043 26.6991C4.45222 27.0878 4.8365 27.3837 5.28205 27.5464L6.54608 28.0243C7.01293 28.197 7.44231 28.4588 7.80975 28.7949L7.88681 28.8644V28.8641C8.68808 29.5959 9.2065 30.5864 9.35103 31.6618L9.47419 32.5711H9.47453C9.50137 32.8924 9.72603 33.1632 10.037 33.2492H10.3068C10.5307 33.2512 10.7444 33.1556 10.8923 32.987C11.2824 32.5756 11.8078 32.3186 12.372 32.2628H12.6108C12.6878 32.2549 12.7652 32.2549 12.842 32.2628C13.0787 32.2845 13.3105 32.3444 13.528 32.44C14.129 32.7022 14.7534 32.9409 15.3851 33.1566C15.8351 33.3156 16.2245 33.6097 16.5004 33.9988C16.7764 34.3879 16.9253 34.8531 16.9264 35.3299V37.5107C17.0179 37.8465 17.3223 38.0794 17.6702 38.0794C18.018 38.0794 18.3225 37.8465 18.414 37.5107V37.1409C18.4411 36.4817 18.7005 35.8535 19.1461 35.367C19.5916 34.8802 20.1947 34.5671 20.8491 34.4821C21.0383 34.4588 21.2299 34.4588 21.4195 34.4821H21.9744H21.9741C22.9078 34.7051 23.7162 35.2865 24.2244 36.1005L24.8795 37.0713C25.0088 37.2647 25.2183 37.3892 25.4499 37.4105H25.6811C25.8276 37.3779 25.9618 37.3029 26.0664 37.1948L29.3341 33.8887H29.3337C29.5773 33.6499 29.8728 33.4703 30.1969 33.3647C30.3077 33.3313 30.4212 33.3079 30.5361 33.2952H30.6517C30.8152 33.2687 30.9817 33.2687 31.1447 33.2952C31.5046 33.3382 31.8473 33.4738 32.139 33.6884C32.695 34.0875 33.0249 34.7302 33.0252 35.4145C33.0245 35.5762 33.0885 35.7317 33.2024 35.8462C33.2801 35.9261 33.3792 35.9825 33.4876 36.0079C33.5382 36.02 33.5911 36.02 33.6417 36.0079C34.1485 35.9918 34.5544 35.5824 34.5665 35.0756V33.6035C34.5565 32.3883 35.1297 31.2423 36.1078 30.5209C36.7157 30.0998 37.3487 29.7162 38.0034 29.3729C38.9877 28.9235 39.857 28.2568 40.5465 27.4232C42.5116 24.8416 43.8142 20.5566 43.8142 16.7575C43.8166 15.7839 43.7158 14.8123 43.5135 13.8601L43.5141 13.8606ZM33.1417 21.7982C33.0877 22.1811 32.7578 22.4645 32.3711 22.4608H32.2555L28.148 21.8442C27.7296 21.7809 27.4407 21.3922 27.5005 20.9735C27.527 20.7633 27.6385 20.5734 27.8088 20.4482C27.9794 20.3229 28.1941 20.273 28.4022 20.3105L32.5097 20.9271C32.9219 20.9979 33.2022 21.3843 33.1417 21.7982ZM27.9553 2.25472C28.1225 2.13534 28.3307 2.08787 28.5333 2.12227C28.736 2.15701 28.9162 2.27123 29.0342 2.43982L30.506 4.51297V4.51262C30.6254 4.68017 30.6732 4.88831 30.6385 5.0906C30.6037 5.29324 30.4895 5.47386 30.3213 5.59152C30.1902 5.68304 30.034 5.73154 29.874 5.73051C29.626 5.72913 29.3938 5.60872 29.2499 5.40677L27.7702 3.33362C27.6508 3.16642 27.6034 2.95827 27.6378 2.75564C27.6725 2.553 27.7867 2.37272 27.9553 2.25472L27.9553 2.25472ZM16.8423 2.88672H20.6955C21.121 2.88672 21.4661 3.23179 21.4661 3.65736C21.4661 4.08292 21.121 4.428 20.6955 4.428H16.8423C16.4167 4.428 16.0716 4.08292 16.0716 3.65736C16.0716 3.23179 16.4167 2.88672 16.8423 2.88672ZM14.9157 13.8686C14.9157 11.5026 16.2642 8.69769 22.6221 8.69769C29.0644 8.69769 32.3242 10.2004 32.3242 13.1674C32.3232 13.3996 32.3029 13.6319 32.2623 13.861C31.6306 17.0977 26.9449 19.0703 22.583 19.0703C16.2483 19.0703 14.9152 16.25 14.9152 13.884L14.9157 13.8686ZM22.0131 21.9293L19.7012 24.2412C19.5567 24.3871 19.3596 24.4693 19.1542 24.4693C18.9488 24.4693 18.7517 24.3871 18.6072 24.2412C18.4613 24.0967 18.3791 23.8996 18.3791 23.6942C18.3791 23.4888 18.4613 23.2917 18.6072 23.1472L20.9191 20.8352C21.2212 20.5328 21.7111 20.5328 22.0131 20.8352C22.3156 21.1373 22.3156 21.6272 22.0131 21.9293L22.0131 21.9293ZM9.73661 6.94803C9.78994 6.52246 10.178 6.2204 10.6036 6.27373C11.0292 6.32671 11.3312 6.71512 11.2779 7.1407L10.8616 10.385H10.8619C10.8114 10.771 10.4804 11.0589 10.0913 11.0555H9.98328C9.56218 10.9994 9.26597 10.6134 9.32067 10.1923L9.73661 6.94803ZM9.51299 24.9423H9.51333C9.36608 25.1284 9.14142 25.2364 8.90438 25.235C8.73064 25.234 8.56207 25.1741 8.42652 25.0654C8.23386 24.9189 8.04876 24.7647 7.86402 24.603C7.54062 24.3264 7.50244 23.84 7.77939 23.5166C8.05599 23.1932 8.54246 23.155 8.86586 23.4316L9.38226 23.863V23.8633C9.71528 24.1255 9.77377 24.6078 9.51333 24.9422L9.51299 24.9423ZM11.1003 18.9853L8.01777 17.444H8.01811C7.82029 17.3614 7.66582 17.2004 7.5915 16.9995C7.51719 16.7986 7.52992 16.576 7.62659 16.3847C7.72327 16.1934 7.89529 16.0513 8.10102 15.9918C8.30675 15.9326 8.52797 15.9615 8.71168 16.072L11.7942 17.6132C12.172 17.8056 12.3237 18.2673 12.1335 18.6461C12.0027 18.9051 11.7375 19.0689 11.4475 19.0699C11.3267 19.0713 11.2073 19.0421 11.1007 18.9853L11.1003 18.9853ZM33.3494 27.655C30.0996 29.1223 26.5729 29.8736 23.0069 29.8589C19.1431 29.8826 15.328 28.9953 11.871 27.2697C11.4901 27.078 11.3363 26.6139 11.528 26.2331C11.7196 25.8522 12.1837 25.6984 12.5646 25.8901C15.8061 27.5084 19.3837 28.3399 23.0065 28.3175C26.3488 28.3316 29.655 27.6274 32.7008 26.2523C33.0881 26.0734 33.5471 26.2427 33.7257 26.6297C33.9046 27.0171 33.7356 27.476 33.3482 27.655L33.3494 27.655ZM35.5611 8.82848V8.82814C35.2587 8.52607 35.2587 8.03617 35.5611 7.73409C35.8632 7.43169 36.3531 7.43169 36.6552 7.73409L38.9671 10.046C39.113 10.1905 39.1952 10.3876 39.1952 10.593C39.1952 10.7984 39.113 10.9955 38.9671 11.14C38.8226 11.2859 38.6255 11.3681 38.4201 11.3681C38.2147 11.3681 38.0176 11.2859 37.8731 11.14L35.5611 8.82848ZM39.638 17.0819L38.6671 20.0028L38.6668 20.0024C38.5594 20.3334 38.2436 20.5512 37.8961 20.5343C37.8143 20.5453 37.7314 20.5453 37.6495 20.5343C37.4551 20.4693 37.2944 20.3296 37.2033 20.1459C37.1121 19.9622 37.098 19.7499 37.164 19.5555L38.1349 16.6347V16.635C38.269 16.2304 38.7056 16.0116 39.1098 16.1454C39.5141 16.2796 39.7332 16.7162 39.5991 17.1204L39.638 17.0819ZM17.6593 16.4193L17.659 16.419C21.0577 15.7161 24.5641 15.7161 27.9626 16.419C28.6087 16.1145 29.2018 15.7089 29.7196 15.2169C30.1311 14.8474 30.4435 14.3813 30.6292 13.8608C30.706 13.6375 30.7452 13.4032 30.7448 13.1672C30.7448 10.7472 26.3061 10.2388 22.5836 10.2388C16.488 10.2388 16.4571 12.9591 16.4571 13.8684C16.443 14.276 16.5004 14.6827 16.6267 15.0704C16.818 15.6188 17.1799 16.0915 17.6592 16.419L17.6593 16.4193ZM22.5838 10.2542C16.4882 10.2542 16.4573 12.9745 16.4573 13.8838H16.4569C16.4428 14.2911 16.5003 14.6981 16.6266 15.0858C16.8209 15.6283 17.1825 16.0952 17.659 16.4189C21.0578 15.7161 24.5641 15.7161 27.9627 16.4189C28.6088 16.1145 29.2019 15.7089 29.7197 15.2169C30.1312 14.8474 30.4435 14.3813 30.6293 13.8608C30.706 13.6375 30.7452 13.4032 30.7449 13.1672C30.7139 10.7472 26.3058 10.2388 22.5837 10.2388L22.5838 10.2542ZM22.5838 10.2542C16.4882 10.2542 16.4573 12.9745 16.4573 13.8838H16.4569C16.4428 14.2911 16.5003 14.6981 16.6266 15.0858C16.8209 15.6283 17.1825 16.0952 17.659 16.4189C21.0578 15.7161 24.5641 15.7161 27.9627 16.4189C28.6088 16.1145 29.2019 15.7089 29.7197 15.2169C30.1312 14.8474 30.4435 14.3813 30.6293 13.8608C30.706 13.6375 30.7452 13.4032 30.7449 13.1672C30.7139 10.7472 26.3058 10.2388 22.5837 10.2388L22.5838 10.2542ZM22.5838 10.2542C16.4882 10.2542 16.4573 12.9745 16.4573 13.8838H16.4569C16.4428 14.2911 16.5003 14.6981 16.6266 15.0858C16.8209 15.6283 17.1825 16.0952 17.659 16.4189C21.0578 15.7161 24.5641 15.7161 27.9627 16.4189C28.6088 16.1145 29.2019 15.7089 29.7197 15.2169C30.1312 14.8474 30.4435 14.3813 30.6293 13.8608C30.706 13.6375 30.7452 13.4032 30.7449 13.1672C30.7139 10.7472 26.3058 10.2388 22.5837 10.2388L22.5838 10.2542ZM22.5838 10.2542C16.4882 10.2542 16.4573 12.9745 16.4573 13.8838H16.4569C16.4428 14.2911 16.5003 14.6981 16.6266 15.0858C16.8209 15.6283 17.1825 16.0952 17.659 16.4189C21.0578 15.7161 24.5641 15.7161 27.9627 16.4189C28.6088 16.1145 29.2019 15.7089 29.7197 15.2169C30.1312 14.8474 30.4435 14.3813 30.6293 13.8608C30.706 13.6375 30.7452 13.4032 30.7449 13.1672C30.7139 10.7472 26.3058 10.2388 22.5837 10.2388L22.5838 10.2542ZM22.5838 10.2542C16.4882 10.2542 16.4573 12.9745 16.4573 13.8838H16.4569C16.4428 14.2911 16.5003 14.6981 16.6266 15.0858C16.8209 15.6283 17.1825 16.0952 17.659 16.4189C21.0578 15.7161 24.5641 15.7161 27.9627 16.4189C28.6088 16.1145 29.2019 15.7089 29.7197 15.2169C30.1312 14.8474 30.4435 14.3813 30.6293 13.8608C30.706 13.6375 30.7452 13.4032 30.7449 13.1672C30.7139 10.7472 26.3058 10.2388 22.5837 10.2388L22.5838 10.2542ZM22.5838 10.2542C16.4882 10.2542 16.4573 12.9745 16.4573 13.8838H16.4569C16.4428 14.2911 16.5003 14.6981 16.6266 15.0858C16.8209 15.6283 17.1825 16.0952 17.659 16.4189C21.0578 15.7161 24.5641 15.7161 27.9627 16.4189C28.6088 16.1145 29.2019 15.7089 29.7197 15.2169C30.1312 14.8474 30.4435 14.3813 30.6293 13.8608C30.706 13.6375 30.7452 13.4032 30.7449 13.1672C30.7139 10.7472 26.3058 10.2388 22.5837 10.2388L22.5838 10.2542ZM22.5838 10.2542C16.4882 10.2542 16.4573 12.9745 16.4573 13.8838H16.4569C16.4428 14.2911 16.5003 14.6981 16.6266 15.0858C16.8209 15.6283 17.1825 16.0952 17.659 16.4189C21.0578 15.7161 24.5641 15.7161 27.9627 16.4189C28.6088 16.1145 29.2019 15.7089 29.7197 15.2169C30.1312 14.8474 30.4435 14.3813 30.6293 13.8608C30.706 13.6375 30.7452 13.4032 30.7449 13.1672C30.7139 10.7472 26.3058 10.2388 22.5837 10.2388L22.5838 10.2542ZM22.5838 10.2542C16.4882 10.2542 16.4573 12.9745 16.4573 13.8838H16.4569C16.4428 14.2911 16.5003 14.6981 16.6266 15.0858C16.8209 15.6283 17.1825 16.0952 17.659 16.4189C21.0578 15.7161 24.5641 15.7161 27.9627 16.4189C28.6088 16.1145 29.2019 15.7089 29.7197 15.2169C30.1312 14.8474 30.4435 14.3813 30.6293 13.8608C30.706 13.6375 30.7452 13.4032 30.7449 13.1672C30.7139 10.7472 26.3058 10.2388 22.5837 10.2388L22.5838 10.2542ZM22.5838 10.2542C16.4882 10.2542 16.4573 12.9745 16.4573 13.8838H16.4569C16.4428 14.2911 16.5003 14.6981 16.6266 15.0858C16.8209 15.6283 17.1825 16.0952 17.659 16.4189C21.0578 15.7161 24.5641 15.7161 27.9627 16.4189C28.6088 16.1145 29.2019 15.7089 29.7197 15.2169C30.1312 14.8474 30.4435 14.3813 30.6293 13.8608C30.706 13.6375 30.7452 13.4032 30.7449 13.1672C30.7139 10.7472 26.3058 10.2388 22.5837 10.2388L22.5838 10.2542ZM22.5838 10.2542C16.4882 10.2542 16.4573 12.9745 16.4573 13.8838H16.4569C16.4428 14.2911 16.5003 14.6981 16.6266 15.0858C16.8209 15.6283 17.1825 16.0952 17.659 16.4189C21.0578 15.7161 24.5641 15.7161 27.9627 16.4189C28.6088 16.1145 29.2019 15.7089 29.7197 15.2169C30.1312 14.8474 30.4435 14.3813 30.6293 13.8608C30.706 13.6375 30.7452 13.4032 30.7449 13.1672C30.7139 10.7472 26.3058 10.2388 22.5837 10.2388L22.5838 10.2542ZM22.5838 10.2542C16.4882 10.2542 16.4573 12.9745 16.4573 13.8838H16.4569C16.4428 14.2911 16.5003 14.6981 16.6266 15.0858C16.8209 15.6283 17.1825 16.0952 17.659 16.4189C21.0578 15.7161 24.5641 15.7161 27.9627 16.4189C28.6088 16.1145 29.2019 15.7089 29.7197 15.2169C30.1312 14.8474 30.4435 14.3813 30.6293 13.8608C30.706 13.6375 30.7452 13.4032 30.7449 13.1672C30.7139 10.7472 26.3058 10.2388 22.5837 10.2388L22.5838 10.2542ZM22.5838 10.2542C16.4882 10.2542 16.4573 12.9745 16.4573 13.8838H16.4569C16.4428 14.2911 16.5003 14.6981 16.6266 15.0858C16.8209 15.6283 17.1825 16.0952 17.659 16.4189C21.0578 15.7161 24.5641 15.7161 27.9627 16.4189C28.6088 16.1145 29.2019 15.7089 29.7197 15.2169C30.1312 14.8474 30.4435 14.3813 30.6293 13.8608C30.706 13.6375 30.7452 13.4032 30.7449 13.1672C30.7139 10.7472 26.3058 10.2388 22.5837 10.2388L22.5838 10.2542ZM22.5838 10.2542C16.4882 10.2542 16.4573 12.9745 16.4573 13.8838H16.4569C16.4428 14.2911 16.5003 14.6981 16.6266 15.0858C16.8209 15.6283 17.1825 16.0952 17.659 16.4189C21.0578 15.7161 24.5641 15.7161 27.9627 16.4189C28.6088 16.1145 29.2019 15.7089 29.7197 15.2169C30.1312 14.8474 30.4435 14.3813 30.6293 13.8608C30.706 13.6375 30.7452 13.4032 30.7449 13.1672C30.7139 10.7472 26.3058 10.2388 22.5837 10.2388L22.5838 10.2542ZM22.5838 10.2542C16.4882 10.2542 16.4573 12.9745 16.4573 13.8838H16.4569C16.4428 14.2911 16.5003 14.6981 16.6266 15.0858C16.8209 15.6283 17.1825 16.0952 17.659 16.4189C21.0578 15.7161 24.5641 15.7161 27.9627 16.4189C28.6088 16.1145 29.2019 15.7089 29.7197 15.2169C30.1312 14.8474 30.4435 14.3813 30.6293 13.8608C30.706 13.6375 30.7452 13.4032 30.7449 13.1672C30.7139 10.7472 26.3058 10.2388 22.5837 10.2388L22.5838 10.2542ZM22.5838 10.2542C16.4882 10.2542 16.4573 12.9745 16.4573 13.8838H16.4569C16.4428 14.2911 16.5003 14.6981 16.6266 15.0858C16.8209 15.6283 17.1825 16.0952 17.659 16.4189C21.0578 15.7161 24.5641 15.7161 27.9627 16.4189C28.6088 16.1145 29.2019 15.7089 29.7197 15.2169C30.1312 14.8474 30.4435 14.3813 30.6293 13.8608C30.706 13.6375 30.7452 13.4032 30.7449 13.1672C30.7139 10.7472 26.3058 10.2388 22.5837 10.2388L22.5838 10.2542ZM22.5838 10.2542C16.4882 10.2542 16.4573 12.9745 16.4573 13.8838H16.4569C16.4428 14.2911 16.5003 14.6981 16.6266 15.0858C16.8209 15.6283 17.1825 16.0952 17.659 16.4189C21.0578 15.7161 24.5641 15.7161 27.9627 16.4189C28.6088 16.1145 29.2019 15.7089 29.7197 15.2169C30.1312 14.8474 30.4435 14.3813 30.6293 13.8608C30.706 13.6375 30.7452 13.4032 30.7449 13.1672C30.7139 10.7472 26.3058 10.2388 22.5837 10.2388L22.5838 10.2542ZM22.5838 10.2542C16.4882 10.2542 16.4573 12.9745 16.4573 13.8838H16.4569C16.4428 14.2911 16.5003 14.6981 16.6266 15.0858C16.8209 15.6283 17.1825 16.0952 17.659 16.4189C21.0578 15.7161 24.5641 15.7161 27.9627 16.4189C28.6088 16.1145 29.2019 15.7089 29.7197 15.2169C30.1312 14.8474 30.4435 14.3813 30.6293 13.8608C30.706 13.6375 30.7452 13.4032 30.7449 13.1672C30.7139 10.7472 26.3058 10.2388 22.5837 10.2388L22.5838 10.2542ZM22.5838 10.2542C16.4882 10.2542 16.4573 12.9745 16.4573 13.8838H16.4569C16.4428 14.2911 16.5003 14.6981 16.6266 15.0858C16.8209 15.6283 17.1825 16.0952 17.659 16.4189C21.0578 15.7161 24.5641 15.7161 27.9627 16.4189C28.6088 16.1145 29.2019 15.7089 29.7197 15.2169C30.1312 14.8474 30.4435 14.3813 30.6293 13.8608C30.706 13.6375 30.7452 13.4032 30.7449 13.1672C30.7139 10.7472 26.3058 10.2388 22.5837 10.2388L22.5838 10.2542Z" fill="black"/>
</g>
</svg>
