<svg width="41" height="43" viewBox="0 0 41 43" fill="none" xmlns="http://www.w3.org/2000/svg">
<g id="Group 14">
<path id="Vector" d="M40.6666 24.4929C40.6699 24.5346 40.6699 24.5763 40.6666 24.618C40.644 25.3751 40.3306 26.0947 39.791 26.6265C39.4021 27.0157 38.9049 27.2788 38.3639 27.3813C37.8232 27.4834 37.2642 27.4207 36.7597 27.2003C36.3186 27.0042 35.9412 26.6883 35.6709 26.2882C35.6053 26.1995 35.5461 26.1059 35.4942 26.0083L34.9352 24.9783C34.7513 24.6325 34.5454 24.2426 34.3246 23.8675C33.9716 23.2642 33.5889 22.5948 33.0959 21.8738C32.8384 21.4764 32.5661 21.0645 32.2646 20.6379C32.0439 20.3288 31.816 20.0197 31.5289 19.6962C31.2418 19.3724 31.161 19.2032 30.9623 18.9605C30.7636 18.7178 30.4693 18.3279 30.2266 18.0113C29.4469 17.0697 28.564 16.0688 27.5632 15.0244C27.2909 14.7374 27.0042 14.4506 26.7099 14.1564L26.5184 13.9649C23.1489 10.5087 19.237 7.62579 14.9385 5.43047L14.843 5.36412C14.6262 5.24621 14.4258 5.10005 14.2468 4.92991C14.1368 4.82284 14.0383 4.70459 13.9525 4.57683C13.6326 4.15116 13.4503 3.63779 13.4303 3.10538C13.3988 2.34699 13.6872 1.6103 14.2248 1.07494C14.6193 0.679821 15.1153 0.401625 15.6585 0.271885C16.2015 0.141817 16.7697 0.165141 17.3001 0.339217C19.4485 1.03816 23.9216 2.87028 30.9694 9.90364C32.4924 11.4266 33.7724 12.8465 34.8467 14.1193C35.185 14.5167 35.5017 14.9138 35.8104 15.3113L36.4066 16.069C38.1953 18.3067 39.5866 20.8352 40.5194 23.5438C40.6199 23.8502 40.6698 24.1708 40.6665 24.493L40.6666 24.4929Z" fill="black"/>
<path id="Vector_2" d="M6.35988 39.3467L7.34592 40.6047L4.46179 41.8482C3.55294 42.2387 2.5088 42.1468 1.6821 41.6032C0.855721 41.0596 0.357791 40.1373 0.356445 39.148V38.7654C0.868493 39.2886 1.52478 39.6472 2.24175 39.7954C2.95873 39.9436 3.70336 39.8742 4.3809 39.5967L5.50652 39.126C5.80836 39.0019 6.15587 39.0919 6.3598 39.3467L6.35988 39.3467Z" fill="black"/>
<path id="Vector_3" d="M16.5426 35.5287V36.4336L14.2031 37.5005L14.7181 35.7127C14.8466 35.3241 15.1402 35.0118 15.5199 34.8594C15.7459 34.7635 16.0047 34.7868 16.2099 34.9212C16.4152 35.0555 16.54 35.2835 16.5427 35.5288L16.5426 35.5287Z" fill="black"/>
<path id="Vector_4" d="M24.2305 33.3216L24.3557 33.5939L20.9565 35.1389V34.7195C20.9569 34.2862 21.0846 33.8626 21.3241 33.5016C21.5635 33.1406 21.9041 32.8579 22.3029 32.689C22.6478 32.5547 23.0284 32.5442 23.3802 32.6598C23.7316 32.7751 24.0325 33.0089 24.2305 33.3216L24.2305 33.3216Z" fill="black"/>
<path id="Vector_5" d="M35.267 27.8694L28.9546 30.7535L29.1237 30.0178V30.0175C29.2844 29.3356 29.7596 28.7703 30.4041 28.4948L34.2446 26.869L34.2443 26.8687C34.5025 27.2776 34.8526 27.6205 35.2671 27.8694L35.267 27.8694Z" fill="black"/>
<path id="Vector_6" d="M15.0713 11.9854C15.0713 12.9609 14.6837 13.8966 13.994 14.5867C13.304 15.2765 12.3682 15.664 11.3927 15.664C11.0022 15.665 10.6139 15.6003 10.2451 15.4728L13.3279 8.85132H13.3276C14.4197 9.51643 15.0818 10.7067 15.0713 11.9853L15.0713 11.9854Z" fill="black"/>
<path id="Vector_7" d="M8.39062 21.2712C8.07531 21.685 7.63355 21.9846 7.13232 22.1244L7.66934 20.9769H7.66966C7.73535 20.9657 7.80236 20.9657 7.86805 20.9769C8.07366 21.0045 8.26055 21.1099 8.39061 21.2712H8.39062Z" fill="black"/>
<path id="Vector_8" d="M20.2213 23.7572C20.2213 25.789 18.5744 27.4359 16.5426 27.4359C14.5109 27.4359 12.864 25.789 12.864 23.7572C12.864 21.7255 14.5109 20.0786 16.5426 20.0786C18.5744 20.0786 20.2213 21.7255 20.2213 23.7572Z" fill="black"/>
<path id="Vector_9" d="M11.3917 31.2106C11.3949 31.277 11.3949 31.3433 11.3917 31.4093C11.3884 31.8945 11.2255 32.3651 10.9282 32.7484C10.6802 33.0276 10.3462 33.2165 9.979 33.2855C10.0401 32.7402 10.2023 32.2115 10.4572 31.7256C10.5357 31.5634 10.655 31.4238 10.8031 31.321C10.9269 31.2379 11.0731 31.1942 11.2225 31.1958L11.3917 31.2106Z" fill="black"/>
<path id="Vector_10" d="M5.50682 29.6428C5.50682 30.6072 5.12844 31.5327 4.45284 32.2208C3.77723 32.9088 2.85854 33.304 1.89453 33.3214L4.69029 27.3621C5.21613 28.0058 5.50451 28.8111 5.50681 29.6428H5.50682Z" fill="black"/>
<path id="Vector_11" d="M25.7021 27.1046C25.5136 27.6081 25.0856 27.9838 24.5618 28.105C24.5719 27.8807 24.5966 27.657 24.6353 27.4356C24.6767 26.9239 24.8951 26.4424 25.2535 26.0745C25.3868 25.9694 25.5547 25.9168 25.7242 25.9273H25.8345C25.8756 26.3248 25.8306 26.7261 25.7022 27.1045L25.7021 27.1046Z" fill="black"/>
<path id="Vector_12" d="M26.5782 16.062C28.1768 17.7411 29.6522 19.5334 30.9926 21.4253C30.5866 21.5829 30.155 21.663 29.7195 21.6608C28.8445 21.6598 27.998 21.3471 27.3326 20.7782C26.6675 20.2097 26.2267 19.4224 26.0898 18.5579C25.9528 17.6935 26.1285 16.8086 26.5854 16.062L26.5782 16.062Z" fill="black"/>
<path id="Vector_13" d="M32.8462 24.3676C32.5519 23.8453 32.2136 23.2788 31.8162 22.6754C31.156 22.9779 30.4383 23.1332 29.7122 23.1316C28.3462 23.1316 27.0363 22.589 26.0706 21.6231C25.1047 20.6575 24.5621 19.3476 24.5621 17.9815C24.5578 16.9052 24.8981 15.8558 25.5333 14.9871L25.4522 14.9283C22.2298 11.6024 18.5059 8.80243 14.4163 6.62939L13.9605 7.57104C15.2479 8.34453 16.1342 9.64158 16.3861 11.1225C16.638 12.6035 16.2304 14.1206 15.271 15.2761C14.3112 16.4319 12.8946 17.1111 11.3926 17.1354C10.7873 17.137 10.1869 17.0296 9.61967 16.8191L8.3322 19.5633C9.03606 19.7699 9.61614 20.2718 9.92119 20.9391C10.0526 21.1668 10.0526 21.4473 9.92119 21.6749C9.34017 22.6454 8.39391 23.3427 7.29461 23.6098C7.01182 23.6538 6.72409 23.6538 6.44134 23.6098L5.36735 25.9053H5.36702C6.49852 26.9702 7.08879 28.4892 6.97317 30.0388C6.85723 31.5882 6.04826 33.0028 4.77121 33.8879C3.9918 34.4338 3.07316 34.7478 2.1226 34.7928C2.02472 34.8004 1.92619 34.8004 1.82831 34.7928C1.6273 34.804 1.42596 34.804 1.22495 34.7928L1.04102 35.1755L0.95266 35.3742C0.687933 35.9634 0.70961 36.642 1.01178 37.2135C1.25845 37.7114 1.68444 38.0983 2.20408 38.296C2.72401 38.4938 3.29909 38.4882 3.81477 38.2803L4.91836 37.8093C5.36472 37.6175 5.86202 37.5787 6.33297 37.6983C6.80397 37.8182 7.22206 38.0898 7.52291 38.4714L8.7369 40.0237L10.2083 41.907V41.9073C10.3824 42.1293 10.6682 42.2321 10.9441 42.172C11.2144 42.1198 11.4328 41.9211 11.5103 41.657L12.4668 38.3315L13.3424 35.3078C13.6068 34.508 14.2016 33.8596 14.9758 33.5272C15.6491 33.2533 16.4144 33.3285 17.0214 33.7286C17.6287 34.1283 18.0002 34.8016 18.0143 35.5284V40.1783C18.0143 40.3734 18.0918 40.5606 18.2298 40.6986C18.3677 40.8365 18.5549 40.914 18.75 40.914C18.9395 40.9134 19.1212 40.8395 19.2578 40.7081C19.4027 40.5698 19.4851 40.3787 19.4858 40.1783V33.9834C19.4848 33.2667 19.693 32.5652 20.0852 31.9654C20.4773 31.3653 21.0361 30.893 21.6929 30.6063C22.0637 30.4427 22.4648 30.3577 22.8701 30.3564C23.4097 30.3564 23.9392 30.5012 24.4036 30.7755C24.8683 31.0497 25.2506 31.4435 25.5115 31.9161L25.6658 32.24V32.3063V32.306C25.7979 32.5872 26.0925 32.7547 26.4016 32.7254C26.7169 32.6955 26.9777 32.4673 27.0489 32.1589L27.1961 31.5263L27.6303 29.6869V29.6866C27.8967 28.5515 28.6856 27.6099 29.7563 27.1483L33.4349 25.5737C33.3246 25.2282 33.0966 24.8015 32.8464 24.3673L32.8462 24.3676ZM17.2783 15.4068C17.4182 15.1421 18.7057 12.7951 20.4934 12.5891C21.3523 12.5096 22.1902 12.8866 22.7006 13.5822C22.8645 13.7754 22.9174 14.0398 22.8402 14.2812C22.4815 15.3569 21.7044 16.2427 20.6846 16.7383C20.3325 16.8848 19.9551 16.96 19.5737 16.9591C18.8804 16.9377 18.2031 16.7459 17.6021 16.4C17.4267 16.312 17.294 16.1573 17.2332 15.9708C17.1725 15.7842 17.1886 15.5812 17.2782 15.4068L17.2783 15.4068ZM16.5425 18.6072C17.9085 18.6072 19.2184 19.1498 20.1841 20.1157C21.15 21.0813 21.6926 22.3912 21.6926 23.7573C21.6926 25.1234 21.15 26.4331 20.1841 27.3988C19.2185 28.3648 17.9086 28.9074 16.5425 28.9074C15.1764 28.9074 13.8667 28.3648 12.901 27.3988C11.935 26.4332 11.3925 25.1234 11.3925 23.7573C11.3925 22.3912 11.9351 21.0814 12.901 20.1157C13.8666 19.1498 15.1764 18.6072 16.5425 18.6072ZM12.0766 33.6597C11.3586 34.4464 10.3214 34.8631 9.25885 34.7929H9.18528C8.77899 34.7929 8.44955 34.4635 8.44955 34.0572C8.45842 33.4653 8.53002 32.8757 8.66305 32.2987C8.82399 31.4277 9.29433 30.6439 9.98735 30.0915C10.7044 29.6277 11.6122 29.5748 12.3785 29.9519C12.6147 30.0478 12.7848 30.2593 12.8272 30.5109C12.8508 30.6374 12.8656 30.7651 12.8712 30.8936C12.9572 31.8822 12.6741 32.8676 12.0767 33.6597H12.0766ZM26.6591 28.3329V28.3332C25.9714 29.176 24.9364 29.6585 23.8486 29.6427C23.459 29.6434 23.1362 29.3402 23.1129 28.951C23.0879 28.6107 23.0879 28.2688 23.1129 27.9286C23.1864 26.9649 23.4587 25.5891 24.3856 24.8754C25.0724 24.3686 25.9746 24.2598 26.7623 24.5883C27.005 24.6684 27.189 24.8691 27.2477 25.1181C27.3456 25.5723 27.3729 26.0387 27.3285 26.5012C27.2868 27.1636 27.0543 27.7998 26.6592 28.3332L26.6591 28.3329Z" fill="black"/>
<path id="Vector_14" d="M20.6838 14.0531C20.1173 14.1195 19.4846 14.7888 19.0432 15.407C19.3963 15.5259 19.7789 15.5259 20.132 15.407C20.6266 15.1666 21.0237 14.7643 21.2576 14.2667C21.1065 14.1156 20.897 14.0378 20.6838 14.0532L20.6838 14.0531Z" fill="black"/>
</g>
</svg>
