<svg width="33" height="32" viewBox="0 0 33 32" fill="none" xmlns="http://www.w3.org/2000/svg">
<g id="vuesax/linear/call-calling">
<g id="call-calling">
<g id="call-calling_2">
<path id="Vector" d="M29.6276 24.4403C29.6276 24.9203 29.521 25.4136 29.2943 25.8936C29.0676 26.3736 28.7743 26.8269 28.3876 27.2536C27.7343 27.9736 27.0143 28.4936 26.201 28.8269C25.401 29.1603 24.5343 29.3336 23.601 29.3336C22.241 29.3336 20.7876 29.0136 19.2543 28.3603C17.721 27.7069 16.1876 26.8269 14.6676 25.7203C13.1343 24.6003 11.681 23.3603 10.2943 21.9869C8.92098 20.6003 7.68098 19.1469 6.57431 17.6269C5.48098 16.1069 4.60098 14.5869 3.96098 13.0803C3.32098 11.5603 3.00098 10.1069 3.00098 8.72026C3.00098 7.8136 3.16098 6.94693 3.48098 6.14693C3.80098 5.3336 4.30764 4.58693 5.01431 3.92026C5.86764 3.08026 6.80098 2.66693 7.78764 2.66693C8.16098 2.66693 8.53431 2.74693 8.86764 2.90693C9.21431 3.06693 9.52098 3.30693 9.76098 3.6536L12.8543 8.0136C13.0943 8.34693 13.2676 8.6536 13.3876 8.94693C13.5076 9.22693 13.5743 9.50693 13.5743 9.76026C13.5743 10.0803 13.481 10.4003 13.2943 10.7069C13.121 11.0136 12.8676 11.3336 12.5476 11.6536L11.5343 12.7069C11.3876 12.8536 11.321 13.0269 11.321 13.2403C11.321 13.3469 11.3343 13.4403 11.361 13.5469C11.401 13.6536 11.441 13.7336 11.4676 13.8136C11.7076 14.2536 12.121 14.8269 12.7076 15.5203C13.3076 16.2136 13.9476 16.9203 14.641 17.6269C15.361 18.3336 16.0543 18.9869 16.761 19.5869C17.4543 20.1736 18.0276 20.5736 18.481 20.8136C18.5476 20.8403 18.6276 20.8803 18.721 20.9203C18.8276 20.9603 18.9343 20.9736 19.0543 20.9736C19.281 20.9736 19.4543 20.8936 19.601 20.7469L20.6143 19.7469C20.9476 19.4136 21.2676 19.1603 21.5743 19.0003C21.881 18.8136 22.1876 18.7203 22.521 18.7203C22.7743 18.7203 23.041 18.7736 23.3343 18.8936C23.6276 19.0136 23.9343 19.1869 24.2676 19.4136L28.681 22.5469C29.0276 22.7869 29.2676 23.0669 29.4143 23.4003C29.5476 23.7336 29.6276 24.0669 29.6276 24.4403Z" fill="#F6D042" stroke="#292D32" stroke-width="2.07" stroke-miterlimit="10"/>
<path id="Vector_2" d="M25.0011 12.0003C25.0011 11.2003 24.3745 9.97362 23.4411 8.97362C22.5878 8.05362 21.4545 7.33362 20.3345 7.33362" stroke="#292D32" stroke-width="2.07" stroke-linecap="round" stroke-linejoin="round"/>
<path id="Vector_3" d="M29.6678 12.0002C29.6678 6.8402 25.4945 2.66687 20.3345 2.66687" stroke="#292D32" stroke-width="2.07" stroke-linecap="round" stroke-linejoin="round"/>
</g>
</g>
</g>
</svg>
