<svg width="178" height="28" viewBox="0 0 178 28" fill="none" xmlns="http://www.w3.org/2000/svg">
<g id="Group 1">
<g id="DELICE">
<path d="M19.0591 27.6243V26.7297L22.1006 26.0498V1.91438L19.0591 1.2345V0.375717H27.9869C29.8953 0.375717 31.5353 0.459211 32.907 0.626197C34.2906 0.793183 35.4953 1.06752 36.5211 1.4492C37.5588 1.81896 38.4951 2.31991 39.33 2.95208C40.9522 4.15676 42.2046 5.72524 43.0872 7.65751C43.9698 9.57785 44.4112 11.7069 44.4112 14.0447C44.4112 16.4541 43.94 18.6726 42.9977 20.7003C42.0555 22.7161 40.7554 24.3263 39.0974 25.531C38.0478 26.2824 36.9027 26.8192 35.6623 27.1412C34.4218 27.4633 32.907 27.6243 31.1179 27.6243H19.0591ZM29.7939 26.2109C31.4876 26.2109 32.8772 25.9962 33.9626 25.5668C35.048 25.1255 36.0082 24.4038 36.8431 23.4019C37.7615 22.2569 38.4593 20.8554 38.9364 19.1974C39.4254 17.5276 39.6699 15.6848 39.6699 13.669C39.6699 11.6532 39.4254 9.87007 38.9364 8.31949C38.4474 6.7689 37.7258 5.4688 36.7715 4.41917C35.9008 3.50075 34.8631 2.84473 33.6584 2.45112C32.4538 2.04558 30.8912 1.84281 28.9709 1.84281H26.1262V24.0818C26.1262 24.8809 26.3945 25.4356 26.9313 25.7457C27.468 26.0558 28.4222 26.2109 29.7939 26.2109Z" fill="#F6D042"/>
<path d="M47.6783 27.6243V26.7655L50.7198 26.0498V1.91438L47.6783 1.2345V0.375717H67.6451L68.2713 8.15847H67.323C67.0368 7.15655 66.6849 6.10692 66.2674 5.00958C65.8619 3.90032 65.3609 2.84473 64.7646 1.84281H54.7454V26.1393H64.5856C65.2894 24.9942 65.8619 23.8611 66.3032 22.7399C66.7565 21.6187 67.1859 20.4856 67.5914 19.3406H68.8438L67.5019 27.6243H47.6783ZM62.1703 18.2134C62.051 17.4978 61.884 16.7881 61.6693 16.0843C61.4547 15.3806 61.1744 14.6829 60.8285 13.9911H54.2444V12.5061H60.8285C61.1744 11.8023 61.4487 11.0986 61.6515 10.3949C61.8662 9.67923 62.0391 8.97551 62.1703 8.2837H63.1007V18.2134H62.1703Z" fill="#F6D042"/>
<path d="M72.3488 27.6243V26.7655L75.3904 26.0498V1.91438L72.3488 1.2345V0.375717H82.7795V1.2345L79.4159 1.91438V26.1393H89.453C90.0971 25.0539 90.6517 23.9625 91.1169 22.8652C91.5821 21.7678 92.0293 20.5393 92.4587 19.1796H93.5143L92.1725 27.6243H72.3488Z" fill="#F6D042"/>
<path d="M95.689 27.6243V26.7655L98.8736 26.0498V1.91438L95.689 1.2345V0.375717H106.03V1.2345L102.899 1.91438V26.0498L106.03 26.7655V27.6243H95.689Z" fill="#F6D042"/>
<path d="M122.157 28C119.593 28 117.332 27.4156 115.376 26.2466C113.432 25.0777 111.911 23.4556 110.814 21.3802C109.728 19.2929 109.186 16.8895 109.186 14.17C109.186 12.0946 109.502 10.1921 110.134 8.46262C110.778 6.73312 111.685 5.23621 112.854 3.97188C114.022 2.70756 115.406 1.7295 117.004 1.0377C118.603 0.3459 120.356 0 122.264 0C123.672 0 125.038 0.190841 126.361 0.572523C127.697 0.942278 128.902 1.47902 129.976 2.18275H130.119L131.836 0.375717H132.534V8.58786H131.371C131.168 7.93184 130.942 7.34143 130.691 6.81661C130.453 6.2918 130.196 5.80873 129.922 5.36741C129.087 4.03152 128.103 3.07732 126.97 2.50479C125.837 1.93227 124.489 1.64601 122.926 1.64601C120.04 1.64601 117.815 2.7016 116.253 4.81278C114.702 6.92396 113.927 9.95357 113.927 13.9016C113.927 17.8496 114.708 20.9031 116.271 23.062C117.845 25.2209 120.064 26.3003 122.926 26.3003C124.346 26.3003 125.628 26.02 126.773 25.4594C127.918 24.8869 128.872 24.052 129.636 22.9546C130.077 22.3344 130.453 21.6307 130.763 20.8435C131.085 20.0562 131.329 19.1974 131.496 18.2671H132.534V27.6243H131.622L130.011 25.2984C128.747 26.2407 127.483 26.9265 126.218 27.3559C124.966 27.7853 123.612 28 122.157 28Z" fill="#F6D042"/>
<path d="M136.506 27.6243V26.7655L139.548 26.0498V1.91438L136.506 1.2345V0.375717H156.473L157.099 8.15847H156.151C155.865 7.15655 155.513 6.10692 155.095 5.00958C154.69 3.90032 154.189 2.84473 153.592 1.84281H143.573V26.1393H153.414C154.117 24.9942 154.69 23.8611 155.131 22.7399C155.584 21.6187 156.014 20.4856 156.419 19.3406H157.672L156.33 27.6243H136.506ZM150.998 18.2134C150.879 17.4978 150.712 16.7881 150.497 16.0843C150.283 15.3806 150.002 14.6829 149.656 13.9911H143.072V12.5061H149.656C150.002 11.8023 150.277 11.0986 150.479 10.3949C150.694 9.67923 150.867 8.97551 150.998 8.2837H151.929V18.2134H150.998Z" fill="#F6D042"/>
</g>
<path id="Vector" d="M169.094 22.2776C169.094 18.0651 164.618 13.589 160.405 13.589C164.618 13.589 169.094 9.11331 169.094 4.90039C169.094 9.11294 173.57 13.589 177.783 13.589C173.57 13.589 169.094 18.0647 169.094 22.2776Z" fill="#F6D042"/>
<path id="Vector_2" d="M8.68863 22.2776C8.68863 18.0651 4.21291 13.589 0 13.589C4.21254 13.589 8.68863 9.11331 8.68863 4.90039C8.68863 9.11294 13.1643 13.589 17.3773 13.589C13.1647 13.589 8.68863 18.0647 8.68863 22.2776Z" fill="#F6D042"/>
</g>
</svg>
