<svg width="178" height="28" viewBox="0 0 178 28" fill="none" xmlns="http://www.w3.org/2000/svg">
<g id="Group 1">
<g id="DELICE">
<path d="M19.0592 27.6243V26.7297L22.1007 26.0498V1.91438L19.0592 1.2345V0.375717H27.987C29.8954 0.375717 31.5355 0.459211 32.9071 0.626197C34.2907 0.793183 35.4954 1.06752 36.5212 1.4492C37.5589 1.81896 38.4952 2.31991 39.3301 2.95208C40.9523 4.15676 42.2047 5.72524 43.0873 7.65751C43.97 9.57785 44.4113 11.7069 44.4113 14.0447C44.4113 16.4541 43.9401 18.6726 42.9979 20.7003C42.0556 22.7161 40.7555 24.3263 39.0975 25.531C38.0479 26.2824 36.9029 26.8192 35.6624 27.1412C34.4219 27.4633 32.9071 27.6243 31.118 27.6243H19.0592ZM29.794 26.2109C31.4877 26.2109 32.8773 25.9962 33.9627 25.5668C35.0481 25.1255 36.0083 24.4038 36.8432 23.4019C37.7617 22.2569 38.4594 20.8554 38.9365 19.1974C39.4256 17.5276 39.6701 15.6848 39.6701 13.669C39.6701 11.6532 39.4256 9.87007 38.9365 8.31949C38.4475 6.7689 37.7259 5.4688 36.7717 4.41917C35.901 3.50075 34.8633 2.84473 33.6586 2.45112C32.4539 2.04558 30.8914 1.84281 28.971 1.84281H26.1263V24.0818C26.1263 24.8809 26.3947 25.4356 26.9314 25.7457C27.4682 26.0558 28.4224 26.2109 29.794 26.2109Z" fill="#004B1A"/>
<path d="M47.6784 27.6243V26.7655L50.72 26.0498V1.91438L47.6784 1.2345V0.375717H67.6452L68.2714 8.15847H67.3231C67.0369 7.15655 66.685 6.10692 66.2676 5.00958C65.862 3.90032 65.3611 2.84473 64.7647 1.84281H54.7455V26.1393H64.5858C65.2895 24.9942 65.862 23.8611 66.3033 22.7399C66.7566 21.6187 67.186 20.4856 67.5915 19.3406H68.8439L67.5021 27.6243H47.6784ZM62.1704 18.2134C62.0512 17.4978 61.8842 16.7881 61.6695 16.0843C61.4548 15.3806 61.1745 14.6829 60.8286 13.9911H54.2446V12.5061H60.8286C61.1745 11.8023 61.4488 11.0986 61.6516 10.3949C61.8663 9.67923 62.0392 8.97551 62.1704 8.2837H63.1008V18.2134H62.1704Z" fill="#004B1A"/>
<path d="M72.3489 27.6243V26.7655L75.3905 26.0498V1.91438L72.3489 1.2345V0.375717H82.7796V1.2345L79.416 1.91438V26.1393H89.4531C90.0972 25.0539 90.6518 23.9625 91.117 22.8652C91.5822 21.7678 92.0295 20.5393 92.4589 19.1796H93.5144L92.1726 27.6243H72.3489Z" fill="#004B1A"/>
<path d="M95.6891 27.6243V26.7655L98.8737 26.0498V1.91438L95.6891 1.2345V0.375717H106.03V1.2345L102.899 1.91438V26.0498L106.03 26.7655V27.6243H95.6891Z" fill="#004B1A"/>
<path d="M122.157 28C119.593 28 117.332 27.4156 115.376 26.2466C113.432 25.0777 111.911 23.4556 110.814 21.3802C109.729 19.2929 109.186 16.8895 109.186 14.17C109.186 12.0946 109.502 10.1921 110.134 8.46262C110.778 6.73312 111.685 5.23621 112.854 3.97188C114.023 2.70756 115.406 1.7295 117.004 1.0377C118.603 0.3459 120.356 0 122.264 0C123.672 0 125.038 0.190841 126.362 0.572523C127.698 0.942278 128.902 1.47902 129.976 2.18275H130.119L131.836 0.375717H132.534V8.58786H131.371C131.168 7.93184 130.942 7.34143 130.691 6.81661C130.453 6.2918 130.196 5.80873 129.922 5.36741C129.087 4.03152 128.103 3.07732 126.97 2.50479C125.837 1.93227 124.489 1.64601 122.926 1.64601C120.04 1.64601 117.815 2.7016 116.253 4.81278C114.702 6.92396 113.927 9.95357 113.927 13.9016C113.927 17.8496 114.708 20.9031 116.271 23.062C117.845 25.2209 120.064 26.3003 122.926 26.3003C124.346 26.3003 125.628 26.02 126.773 25.4594C127.918 24.8869 128.872 24.052 129.636 22.9546C130.077 22.3344 130.453 21.6307 130.763 20.8435C131.085 20.0562 131.329 19.1974 131.496 18.2671H132.534V27.6243H131.622L130.011 25.2984C128.747 26.2407 127.483 26.9265 126.218 27.3559C124.966 27.7853 123.612 28 122.157 28Z" fill="#004B1A"/>
<path d="M136.506 27.6243V26.7655L139.548 26.0498V1.91438L136.506 1.2345V0.375717H156.473L157.099 8.15847H156.151C155.865 7.15655 155.513 6.10692 155.095 5.00958C154.69 3.90032 154.189 2.84473 153.593 1.84281H143.573V26.1393H153.414C154.117 24.9942 154.69 23.8611 155.131 22.7399C155.584 21.6187 156.014 20.4856 156.419 19.3406H157.672L156.33 27.6243H136.506ZM150.998 18.2134C150.879 17.4978 150.712 16.7881 150.497 16.0843C150.283 15.3806 150.002 14.6829 149.656 13.9911H143.072V12.5061H149.656C150.002 11.8023 150.277 11.0986 150.479 10.3949C150.694 9.67923 150.867 8.97551 150.998 8.2837H151.929V18.2134H150.998Z" fill="#004B1A"/>
</g>
<path id="Vector" d="M169.094 22.2776C169.094 18.0651 164.618 13.589 160.405 13.589C164.618 13.589 169.094 9.11331 169.094 4.90039C169.094 9.11294 173.57 13.589 177.783 13.589C173.57 13.589 169.094 18.0647 169.094 22.2776Z" fill="#004B1A"/>
<path id="Vector_2" d="M8.68863 22.2776C8.68863 18.0651 4.21291 13.589 0 13.589C4.21254 13.589 8.68863 9.11331 8.68863 4.90039C8.68863 9.11294 13.1643 13.589 17.3773 13.589C13.1647 13.589 8.68863 18.0647 8.68863 22.2776Z" fill="#004B1A"/>
</g>
</svg>
