<svg width="39" height="43" viewBox="0 0 39 43" fill="none" xmlns="http://www.w3.org/2000/svg">
<g id="Group 15">
<path id="Vector" d="M26.2695 1.61405C25.7324 1.77636 25.3034 2.18164 25.1102 2.7081C24.7236 2.63289 24.3308 2.59432 23.9368 2.59304H23.6128C23.7526 2.0277 24.0403 1.50961 24.4465 1.09214C24.8524 0.674643 25.3625 0.37285 25.9236 0.21728C26.112 0.162964 26.3138 0.18739 26.4835 0.285415C26.6532 0.38312 26.7753 0.54607 26.8226 0.736016C26.8695 0.925962 26.837 1.12715 26.7326 1.29267C26.6285 1.45819 26.461 1.57422 26.2695 1.61406L26.2695 1.61405Z" fill="black"/>
<path id="Vector_2" d="M25.1033 2.70859C24.824 3.41791 24.6726 4.17123 24.6569 4.93329L25.1319 4.7893C25.5099 4.66203 25.919 4.86515 26.0463 5.24279C26.1735 5.62043 25.9704 6.02989 25.5928 6.15714C24.9686 6.38148 24.312 6.50328 23.649 6.5171C23.0419 6.56306 22.4408 6.37216 21.9716 5.98423C21.6814 5.712 21.6669 5.25594 21.9391 4.96571C22.2113 4.6755 22.6677 4.66103 22.958 4.93325C23.0393 4.97696 23.1264 5.00846 23.217 5.02678C23.2295 4.20145 23.3607 3.38189 23.6059 2.59351C21.6544 2.71917 19.9021 3.83219 18.9594 5.54554C18.0165 7.25855 18.0133 9.33449 18.9514 11.0501C19.8892 12.766 21.6379 13.8841 23.5891 14.0156C25.54 14.147 27.4231 13.2732 28.5824 11.6983C29.7417 10.1238 30.0171 8.06619 29.3123 6.24234C28.6075 4.41809 27.0201 3.08042 25.1033 2.69446L25.1033 2.70859Z" fill="black"/>
<path id="Vector_3" d="M2.33829 27.0701H1.56084C1.33489 27.0711 1.11056 27.0322 0.898438 26.9551V29.2299H5.03798L4.06612 27.934C3.65827 27.3902 3.01807 27.0701 2.33829 27.0701V27.0701Z" fill="black"/>
<path id="Vector_4" d="M0.898438 35.7094H21.7763V30.6699H20.3365C20.3387 31.3365 20.0331 31.9671 19.5079 32.3778C18.9831 32.7889 18.2979 32.9345 17.6513 32.7722C17.1878 32.6459 16.7781 32.3727 16.4833 31.9938C16.1886 31.6145 16.025 31.1501 16.017 30.6699H10.4806C10.2817 30.822 10.0641 30.9479 9.83269 31.0444C8.68501 31.5316 7.36659 31.3899 6.34841 30.6699H0.89852L0.898438 35.7094Z" fill="black"/>
<path id="Vector_5" d="M16.0167 28.0356C16.018 27.7833 15.9164 27.5416 15.7358 27.3658C15.558 27.1778 15.3109 27.0711 15.0518 27.0708C14.4794 27.0714 13.9305 27.2993 13.5258 27.7043L11.9995 29.2306H16.0166L16.0167 28.0356Z" fill="black"/>
<path id="Vector_6" d="M25.455 37.9629C24.9292 38.4733 24.1807 38.6825 23.4662 38.5179C22.7521 38.3537 22.17 37.8385 21.9203 37.1494H0.898438V39.3092C0.898438 40.0728 1.20184 40.8053 1.74178 41.3456C2.28205 41.8855 3.01453 42.1889 3.77815 42.1889H34.0151C34.7787 42.1889 35.5112 41.8855 36.0515 41.3456C36.5914 40.8053 36.8948 40.0728 36.8948 39.3092V37.1494H25.9733C25.864 37.4563 25.6869 37.7344 25.4549 37.9629L25.455 37.9629Z" fill="black"/>
<path id="Vector_7" d="M21.7773 27.7907C21.7801 27.6034 21.7046 27.423 21.5683 27.2938C21.435 27.154 21.2508 27.0734 21.0573 27.0708C20.6598 27.0708 20.3374 27.3932 20.3374 27.7907V29.2306H21.7773V27.7907Z" fill="black"/>
<path id="Vector_8" d="M33.6985 27.3867C33.4138 27.1576 33.0477 27.0557 32.6855 27.1049C32.3233 27.1537 31.9974 27.3495 31.7837 27.6458L31.4668 28.0707C31.1753 28.4833 30.751 28.7832 30.2648 28.9201C29.8466 29.0336 29.4041 29.0188 28.9946 28.8777C28.5848 28.7363 28.2274 28.4753 27.968 28.1282L27.3921 27.3578C27.2561 27.1765 27.0427 27.0698 26.8161 27.0698C26.4186 27.0698 26.0962 27.3922 26.0962 27.7898V29.2296H34.0154V28.1497C34.0151 27.8633 33.9013 27.5889 33.6985 27.3867L33.6985 27.3867Z" fill="black"/>
<path id="Vector_9" d="M35.6497 32.0523C34.9535 31.8687 34.3946 31.3503 34.1594 30.6699H26.0962V35.7094H36.8951V31.9873C36.495 32.1284 36.0624 32.1509 35.6497 32.0523V32.0523Z" fill="black"/>
<path id="Vector_10" d="M38.2699 20.1803C37.9099 18.33 36.7365 15.2057 33.2304 10.8212C32.5738 9.99814 31.8747 9.21008 31.1355 8.45996C31.1285 9.07382 31.0388 9.68417 30.8691 10.2743C30.2411 12.4453 28.6299 14.1956 26.5177 15.0007C24.4058 15.8058 22.0384 15.5721 20.1245 14.3701C18.2102 13.1681 16.972 11.1368 16.7801 8.88483V8.50334L0.977893 18.7765C0.587396 19.032 0.289782 19.4071 0.130024 19.8458C-0.0293887 20.2845 -0.0425697 20.763 0.0924204 21.2098C0.226763 21.6703 0.510233 22.073 0.898805 22.3546V24.9103C0.892377 25.1735 1.03058 25.4194 1.25877 25.5511C1.35326 25.5968 1.45642 25.6212 1.5612 25.6231H2.33866C3.47162 25.6231 4.53859 26.1563 5.21837 27.063L6.65822 29.0139C7.03393 29.5143 7.60861 29.827 8.23277 29.8714C8.85691 29.9154 9.46981 29.6869 9.91238 29.2443L12.4826 26.6741C13.1652 25.9966 14.0908 25.6209 15.0524 25.6302C15.6891 25.6341 16.2985 25.8886 16.7487 26.3386C17.1987 26.7888 17.4532 27.3982 17.4571 28.0349V30.6696C17.4571 30.8605 17.5329 31.0437 17.6679 31.1787C17.8029 31.3137 17.9861 31.3896 18.177 31.3896C18.3644 31.3925 18.5447 31.3169 18.6739 31.1807C18.8137 31.0473 18.8944 30.8631 18.8969 30.6696V27.8835C18.9072 27.3889 19.0737 26.9103 19.3726 26.516C19.6712 26.1216 20.0867 25.8317 20.5599 25.6877C21.2027 25.536 21.8792 25.6865 22.397 26.0959C22.9147 26.5057 23.2165 27.1298 23.2165 27.79V36.4291C23.2165 36.62 23.2924 36.8032 23.4273 36.9382C23.5623 37.0732 23.7455 37.1491 23.9364 37.1491C24.1238 37.152 24.3041 37.0764 24.4333 36.9402C24.5731 36.8068 24.6538 36.6226 24.6564 36.4291V27.9052C24.6403 27.3068 24.863 26.7267 25.2754 26.2927C25.7144 25.8418 26.3279 25.6049 26.956 25.6435C27.584 25.6824 28.1638 25.9929 28.544 26.4943L29.1199 27.2646C29.2559 27.4459 29.4693 27.5526 29.6959 27.5526C29.9225 27.5526 30.1359 27.4459 30.2718 27.2646L30.6318 26.7822C31.1756 26.0572 32.0292 25.6303 32.9356 25.6303C33.605 25.6265 34.2481 25.8907 34.7216 26.3641C35.195 26.8375 35.4592 27.4806 35.4553 28.1501V29.9499C35.4553 30.1408 35.5312 30.324 35.6661 30.459C35.8011 30.594 35.9843 30.6698 36.1752 30.6698C36.3626 30.6727 36.5429 30.5972 36.6721 30.4609C36.8119 30.3275 36.8926 30.1434 36.8952 29.9499V22.6066C37.3805 22.4389 37.7877 22.0998 38.041 21.6531C38.2939 21.2066 38.3755 20.6831 38.2701 20.1805L38.2699 20.1803ZM8.09796 22.7505H6.6581C6.26054 22.7505 5.93818 22.4281 5.93818 22.0305C5.93818 21.633 6.26054 21.3106 6.6581 21.3106H8.09796C8.49552 21.3106 8.81788 21.633 8.81788 22.0305C8.81788 22.4281 8.49552 22.7505 8.09796 22.7505ZM28.2559 22.7505H11.6976C11.3 22.7505 10.9777 22.4281 10.9777 22.0305C10.9777 21.633 11.3 21.3106 11.6976 21.3106H28.2559C28.6535 21.3106 28.9758 21.633 28.9758 22.0305C28.9758 22.4281 28.6535 22.7505 28.2559 22.7505Z" fill="black"/>
</g>
</svg>
