<svg width="51" height="51" viewBox="0 0 51 51" fill="none" xmlns="http://www.w3.org/2000/svg">
<g id="Frame 1000005556">
<rect x="1.20027" y="0.795976" width="49.1036" height="49.1036" rx="24.5518" stroke="white" stroke-opacity="0.24" stroke-width="1.21402"/>
<path id="Vector" d="M38.3317 17.9627C37.3961 18.3513 36.3992 18.6088 35.3598 18.7339C36.429 18.1295 37.2451 17.1797 37.6288 16.0349C36.6319 16.5976 35.5312 16.9951 34.3582 17.2169C33.4116 16.2626 32.0624 15.6716 30.5906 15.6716C27.7351 15.6716 25.4362 17.866 25.4362 20.556C25.4362 20.9431 25.4708 21.3152 25.5557 21.6696C21.2677 21.4716 17.4734 19.5258 14.9245 16.5619C14.4795 17.2928 14.2185 18.1295 14.2185 19.0301C14.2185 20.7213 15.1384 22.2204 16.5095 23.0883C15.6809 23.0734 14.8679 22.8456 14.1792 22.4868C14.1792 22.5017 14.1792 22.5211 14.1792 22.5404C14.1792 24.9134 15.9671 26.8844 18.3115 27.3385C17.8917 27.4472 17.4341 27.4993 16.9593 27.4993C16.629 27.4993 16.2957 27.4814 15.9828 27.4159C16.6511 29.3497 18.5474 30.7714 20.8023 30.8175C19.0474 32.1172 16.8193 32.9002 14.4072 32.9002C13.9842 32.9002 13.5785 32.8824 13.1729 32.8332C15.4576 34.2281 18.1653 35.0246 21.0853 35.0246C30.5765 35.0246 35.7655 27.5811 35.7655 21.1292C35.7655 20.9133 35.7576 20.7049 35.7466 20.498C36.7703 19.8102 37.6304 18.9512 38.3317 17.9627Z" fill="white"/>
</g>
</svg>
