<svg width="24" height="24" viewBox="0 0 24 24" fill="none" xmlns="http://www.w3.org/2000/svg">
<g id="instagram" clip-path="url(#clip0_1_350)">
<g id="Group">
<path id="Vector" d="M17.8166 0.736084H6.20481C2.95351 0.736084 0.398926 3.29067 0.398926 6.54197V18.1537C0.398926 21.405 2.95351 23.9596 6.20481 23.9596H17.8166C21.0679 23.9596 23.6225 21.405 23.6225 18.1537V6.54197C23.6225 3.29067 21.0679 0.736084 17.8166 0.736084ZM21.3001 18.1537C21.3001 20.1277 19.7906 21.6373 17.8166 21.6373H6.20481C4.23081 21.6373 2.72128 20.1277 2.72128 18.1537V6.54197C2.72128 4.56797 4.23081 3.05844 6.20481 3.05844H17.8166C19.7906 3.05844 21.3001 4.56797 21.3001 6.54197V18.1537Z" fill="white"/>
<path id="Vector_2" d="M12.0105 6.5415C8.75918 6.5415 6.20459 9.09609 6.20459 12.3474C6.20459 15.5987 8.75918 18.1533 12.0105 18.1533C15.2618 18.1533 17.8164 15.5987 17.8164 12.3474C17.8164 9.09609 15.2618 6.5415 12.0105 6.5415ZM12.0105 15.8309C10.0365 15.8309 8.52694 14.3214 8.52694 12.3474C8.52694 10.3734 10.0365 8.86386 12.0105 8.86386C13.9845 8.86386 15.494 10.3734 15.494 12.3474C15.494 14.3214 13.9845 15.8309 12.0105 15.8309Z" fill="white"/>
<path id="Vector_3" d="M17.8164 7.70394C18.4577 7.70394 18.9776 7.18407 18.9776 6.54277C18.9776 5.90147 18.4577 5.38159 17.8164 5.38159C17.1751 5.38159 16.6553 5.90147 16.6553 6.54277C16.6553 7.18407 17.1751 7.70394 17.8164 7.70394Z" fill="white"/>
</g>
</g>
<defs>
<clipPath id="clip0_1_350">
<rect width="23.2235" height="23.2235" fill="white" transform="translate(0.398926 0.736084)"/>
</clipPath>
</defs>
</svg>
