<svg width="51" height="51" viewBox="0 0 51 51" fill="none" xmlns="http://www.w3.org/2000/svg">
<g id="Frame 1000005557">
<rect x="0.717851" y="0.795976" width="49.1036" height="49.1036" rx="24.5518" stroke="white" stroke-opacity="0.24" stroke-width="1.21402"/>
<path id="Vector" d="M15.5933 17.9197C15.5933 17.2681 15.8221 16.7305 16.2798 16.307C16.7374 15.8834 17.3324 15.6716 18.0647 15.6716C18.7839 15.6716 19.3658 15.8801 19.8104 16.2972C20.268 16.7272 20.4969 17.2876 20.4969 17.9783C20.4969 18.6039 20.2746 19.1252 19.83 19.5422C19.3723 19.9723 18.7708 20.1873 18.0255 20.1873H18.0058C17.2866 20.1873 16.7048 19.9723 16.2602 19.5422C15.8156 19.1122 15.5933 18.5713 15.5933 17.9197ZM15.8482 35.0246V21.9662H20.2027V35.0246H15.8482ZM22.6152 35.0246H26.9697V27.733C26.9697 27.2769 27.022 26.925 27.1266 26.6774C27.3096 26.2343 27.5875 25.8596 27.9602 25.5534C28.3329 25.2471 28.8003 25.094 29.3626 25.094C30.8272 25.094 31.5594 26.0779 31.5594 28.0458V35.0246H35.9139V27.5375C35.9139 25.6087 35.4562 24.1459 34.5408 23.1489C33.6255 22.1519 32.4159 21.6534 30.9122 21.6534C29.2253 21.6534 27.9111 22.3767 26.9697 23.8233V23.8624H26.95L26.9697 23.8233V21.9662H22.6152C22.6414 22.3833 22.6545 23.68 22.6545 25.8564C22.6545 28.0327 22.6414 31.0888 22.6152 35.0246Z" fill="white"/>
</g>
</svg>
