<svg width="25" height="24" viewBox="0 0 25 24" fill="none" xmlns="http://www.w3.org/2000/svg">
<g id="youtube" clip-path="url(#clip0_1_358)">
<g id="Group">
<g id="Group_2">
<path id="Vector" d="M23.8168 6.81475C23.6949 5.79785 22.7365 4.82273 21.7339 4.6921C15.6196 3.93239 9.43677 3.93239 3.32448 4.6921C2.32096 4.82245 1.36263 5.79785 1.24073 6.81475C0.809079 10.5416 0.809079 14.1552 1.24073 17.8813C1.36263 18.8982 2.32096 19.8742 3.32448 20.0039C9.43677 20.7637 15.6198 20.7637 21.7339 20.0039C22.7365 19.8744 23.6949 18.8982 23.8168 17.8813C24.2485 14.1556 24.2485 10.5416 23.8168 6.81475ZM10.5933 16.2193V8.4779L16.3993 12.3488L10.5933 16.2193Z" fill="white"/>
</g>
</g>
</g>
<defs>
<clipPath id="clip0_1_358">
<rect width="23.2235" height="23.2235" fill="white" transform="translate(0.916992 0.736084)"/>
</clipPath>
</defs>
</svg>
