<svg width="24" height="22" viewBox="0 0 24 22" fill="none" xmlns="http://www.w3.org/2000/svg">
<g id="Group">
<path id="Vector" d="M12.5804 0.463968L15.6904 6.76397L22.6444 7.77597C22.798 7.79812 22.9424 7.86283 23.0611 7.96279C23.1798 8.06275 23.2681 8.19395 23.3161 8.34154C23.3641 8.48912 23.3698 8.6472 23.3326 8.79785C23.2953 8.94851 23.2167 9.08573 23.1054 9.19397L18.0724 14.094L19.2604 21.02C19.2866 21.1729 19.2695 21.3302 19.211 21.474C19.1525 21.6177 19.055 21.7423 18.9294 21.8335C18.8039 21.9247 18.6553 21.979 18.5005 21.9902C18.3457 22.0015 18.1908 21.9692 18.0534 21.897L11.8344 18.632L5.61444 21.9C5.47692 21.9718 5.32206 22.0039 5.16732 21.9924C5.01258 21.981 4.8641 21.9266 4.73862 21.8353C4.61314 21.744 4.51565 21.6195 4.45714 21.4758C4.39862 21.3321 4.38141 21.1749 4.40744 21.022L5.59544 14.1L0.562438 9.19997C0.451226 9.09173 0.372547 8.95451 0.335311 8.80385C0.298074 8.6532 0.303769 8.49512 0.35175 8.34754C0.399732 8.19995 0.488082 8.06875 0.606794 7.96879C0.725506 7.86883 0.869836 7.80412 1.02344 7.78197L7.97744 6.76497L11.0874 0.464969C11.1562 0.325795 11.2626 0.208617 11.3944 0.126653C11.5262 0.0446897 11.6784 0.0012028 11.8336 0.00109882C11.9889 0.000994836 12.1411 0.0442779 12.273 0.126065C12.405 0.207852 12.5115 0.324888 12.5804 0.463968Z" fill="#FF6E30"/>
</g>
</svg>
