<svg width="73" height="75" viewBox="0 0 73 75" fill="none" xmlns="http://www.w3.org/2000/svg">
<path id="Vector" d="M6.33363 52.6446L12.853 50.2717C12.8553 51.0379 13.0853 51.7855 13.514 52.4199C13.9424 53.0552 14.5504 53.5484 15.2611 53.8382L28.6767 59.3656L28.6774 59.3641C28.6884 59.3688 28.6987 59.3749 28.7106 59.3786L49.6235 67.3238L49.232 67.4663C48.5546 67.7129 48.2045 68.4598 48.45 69.1344L50.2286 74.0208C50.3465 74.3447 50.5888 74.6086 50.9022 74.7539C51.2155 74.8992 51.5745 74.9144 51.8997 74.796L66.6184 69.4388C66.9437 69.3204 67.2089 69.0781 67.3555 68.7654C67.5022 68.4526 67.5182 68.0947 67.4003 67.7708L65.6218 62.8844C65.5039 62.5604 65.2616 62.2966 64.9482 62.1513C64.6349 62.0059 64.2759 61.9908 63.9506 62.1092L63.2456 60.1721L63.6645 59.2785C64.4022 57.7155 64.483 55.9253 63.8886 54.3061L61.1644 46.8216L62.0649 35.4611C62.1467 34.4542 61.8314 33.4567 61.1871 32.6796L70.1141 29.4304C71.0895 29.0742 71.8841 28.3471 72.3234 27.4091C72.7634 26.4713 72.8126 25.3986 72.46 24.4263L71.5707 21.9831C71.4528 21.6592 71.2104 21.3954 70.8971 21.25C70.5837 21.1047 70.2248 21.0896 69.8995 21.2079L64.9933 22.9937L64.5487 21.7721C59.4001 7.62662 43.6567 0.324067 29.4538 5.49347L28.5646 3.05027L29.7911 2.60384C30.4685 2.35731 30.8186 1.61041 30.5731 0.935807C30.3275 0.261204 29.5792 -0.085895 28.9019 0.160637L19.0894 3.73208C18.4121 3.97861 18.062 4.7255 18.3075 5.40011C18.553 6.07471 19.3014 6.42181 19.9787 6.17528L21.2052 5.72885L22.0945 8.17205C7.89168 13.3415 0.525457 29.0553 5.67398 43.2007L6.1186 44.4223L1.21238 46.208C0.535039 46.4545 0.184913 47.2014 0.430448 47.876L1.3197 50.3192C1.67451 51.2907 2.40177 52.0809 3.34162 52.5164C4.28112 52.9526 5.35711 52.9988 6.33329 52.6448L6.33363 52.6446ZM15.4603 50.2046C15.4645 49.6658 15.8087 49.1872 16.3197 49.0099L17.02 48.755C17.501 48.5806 18.0392 48.7015 18.3971 49.0647L20.0544 50.7491L20.055 50.7508L23.7697 54.5268L16.2638 51.4341C15.7607 51.2361 15.4389 50.7437 15.4604 50.2047L15.4603 50.2046ZM64.5024 67.4418L52.2368 71.9061L51.3476 69.4629L63.6131 64.9986L64.5024 67.4418ZM58.9534 34.1262C59.3095 34.3906 59.5026 34.8206 59.4636 35.2622L58.5409 46.9039C58.5264 47.0889 58.5514 47.275 58.6149 47.4495L61.4353 55.1985C61.7919 56.1699 61.7433 57.2442 61.3007 58.1818L60.6528 59.5639C60.5062 59.8766 60.4901 60.2345 60.6081 60.5585L61.4973 63.0017L53.3692 65.96L29.9111 57.0495L21.9195 48.9271C21.6089 48.6121 21.481 48.1603 21.5801 47.7289C21.679 47.297 21.991 46.9445 22.4079 46.7934L23.215 46.4996C23.6793 46.3288 24.2006 46.4355 24.5581 46.7754L31.8519 53.6589C32.0835 53.8778 32.3879 54.0036 32.7071 54.0134L46.7512 54.4355C47.0252 54.4438 47.2949 54.3654 47.5225 54.2121L51.9841 51.2048C52.2869 51.0008 52.4902 50.6803 52.545 50.3213L54.7798 35.7323L54.7796 35.7317C54.8521 35.2613 55.176 34.8667 55.625 34.7033L57.7185 33.9413C58.1349 33.7854 58.6025 33.8555 58.9534 34.1261L58.9534 34.1262ZM26.7161 45.2254L52.1024 35.9855L50.0521 49.371L46.4145 51.8227L33.2894 51.4274L26.7161 45.2254ZM23.6586 4.83527L26.1117 3.94242L27.0009 6.38562L24.5478 7.27848L23.6586 4.83527ZM8.12729 42.3071C3.46902 29.5087 10.1336 15.2917 22.984 10.6145L30.3433 7.93596C43.1937 3.2588 57.4375 9.86574 62.0958 22.6642L62.5404 23.8858L8.57191 43.5287L8.12729 42.3071ZM3.32838 48.2041L69.5624 24.0969L70.007 25.3185C70.252 25.9933 69.9022 26.7394 69.2251 26.9865L5.44419 50.2008C4.76665 50.4468 4.01909 50.1001 3.77301 49.4257L3.32838 48.2041Z" fill="black"/>
</svg>
